<svg width="83" height="83" viewBox="0 0 83 83" fill="none" xmlns="http://www.w3.org/2000/svg">
<rect width="83" height="83" fill="#D9D9D9"/>
<rect width="83" height="83" fill="#D9F8E3"/>
<path d="M31.4963 62.435C24.275 59.0342 19.1075 52.0117 18.3125 43.7083H15C16.1263 57.3117 27.4992 68 41.3896 68L42.8471 67.9337L34.4333 59.52L31.4963 62.435ZM33.4617 48.0367C33.0421 48.0367 32.6446 47.9704 32.3133 47.86C31.96 47.7275 31.6729 47.5729 31.43 47.33C31.1871 47.1092 30.9883 46.8442 30.8558 46.5129C30.7233 46.2037 30.6571 45.8504 30.6571 45.475H27.7863C27.7863 46.27 27.9408 46.9767 28.25 47.5729C28.5592 48.1692 28.9788 48.6771 29.4867 49.0967C30.0167 49.4942 30.6129 49.8033 31.2975 50.0021C31.96 50.2229 32.6667 50.3333 33.4175 50.3333C34.2346 50.3333 35.0075 50.2229 35.6921 50.0021C36.3988 49.7812 37.0171 49.45 37.525 49.0304C38.0329 48.6108 38.4525 48.0808 38.7396 47.4404C39.0267 46.8 39.1813 46.0933 39.1813 45.2983C39.1813 44.8787 39.1371 44.4592 39.0267 44.0617C38.9162 43.6642 38.7617 43.2887 38.5188 42.9354C38.2979 42.5821 37.9888 42.2729 37.6354 41.9858C37.26 41.6987 36.8183 41.4779 36.2883 41.3012C36.73 41.1025 37.1054 40.8596 37.4367 40.5725C37.7679 40.2854 38.0329 39.9762 38.2538 39.645C38.4746 39.3137 38.6292 38.9825 38.7396 38.6292C38.85 38.2758 38.8942 37.9225 38.8942 37.5692C38.8942 36.7742 38.7617 36.0675 38.4967 35.4492C38.2317 34.8308 37.8562 34.3229 37.3704 33.9254C36.9287 33.5058 36.3325 33.1967 35.67 32.9758C34.9854 32.7771 34.2346 32.6667 33.4175 32.6667C32.6225 32.6667 31.8938 32.7771 31.2092 33.02C30.5467 33.2629 29.9504 33.5942 29.4646 34.0137C29.0008 34.4333 28.6254 34.9192 28.3383 35.4933C28.0733 36.0675 27.9408 36.6858 27.9408 37.3704H30.8117C30.8117 36.995 30.8779 36.6637 31.0104 36.3767C31.1429 36.0896 31.3196 35.8246 31.5625 35.6258C31.8054 35.4271 32.0704 35.2504 32.4017 35.14C32.7329 35.0296 33.0642 34.9633 33.4617 34.9633C34.345 34.9633 35.0075 35.1842 35.4271 35.6479C35.8467 36.0896 36.0675 36.73 36.0675 37.5471C36.0675 37.9446 36.0013 38.2979 35.8908 38.6292C35.7804 38.9604 35.5817 39.2254 35.3388 39.4462C35.0958 39.6671 34.7867 39.8438 34.4333 39.9763C34.08 40.1088 33.6383 40.175 33.1525 40.175H31.4521V42.4496H33.1525C33.6383 42.4496 34.08 42.4937 34.4775 42.6042C34.875 42.7146 35.2063 42.8912 35.4713 43.1121C35.7363 43.355 35.9571 43.6421 36.1117 43.9954C36.2663 44.3487 36.3325 44.7683 36.3325 45.2542C36.3325 46.1596 36.0675 46.8442 35.5596 47.3079C35.0517 47.8158 34.345 48.0367 33.4617 48.0367ZM52.3429 34.9633C51.6363 34.2346 50.7971 33.6604 49.8254 33.2629C48.8538 32.8654 47.7717 32.6667 46.5792 32.6667H41.3675V50.3333H46.4467C47.6613 50.3333 48.7875 50.1346 49.7813 49.7371C50.775 49.3396 51.6363 48.7875 52.3429 48.0587C53.0496 47.33 53.6017 46.4467 53.9771 45.4308C54.3525 44.3929 54.5513 43.2446 54.5513 41.9637V41.0804C54.5513 39.7996 54.3525 38.6512 53.9771 37.6133C53.6017 36.5754 53.0496 35.6921 52.3429 34.9633ZM51.4817 41.9417C51.4817 42.8692 51.3713 43.6862 51.1725 44.4371C50.9517 45.1658 50.6425 45.8062 50.2229 46.3142C49.8033 46.8221 49.2733 47.2196 48.655 47.4846C48.0146 47.7496 47.2858 47.8821 46.4688 47.8821H44.4592V35.14H46.6013C48.1913 35.14 49.4058 35.6479 50.2229 36.6638C51.0621 37.6796 51.4817 39.1371 51.4817 41.0583V41.9417ZM41.3896 15L39.9321 15.0662L48.3458 23.48L51.2829 20.5429C58.5042 23.9658 63.6717 30.9662 64.4446 39.2696H67.7571C66.6529 25.6883 55.28 15 41.3896 15Z" fill="#1F3D4D"/>
</svg>
