<svg width="83" height="83" viewBox="0 0 83 83" fill="none" xmlns="http://www.w3.org/2000/svg">
<rect width="83" height="83" fill="#D9D9D9"/>
<rect width="83" height="83" fill="#D9F8E3"/>
<path d="M22.95 68C20.7417 68 18.8646 67.2271 17.3188 65.6813C15.7729 64.1354 15 62.2583 15 60.05V22.95C15 20.7417 15.7729 18.8646 17.3188 17.3188C18.8646 15.7729 20.7417 15 22.95 15H60.05C62.2583 15 64.1354 15.7729 65.6813 17.3188C67.2271 18.8646 68 20.7417 68 22.95V60.05C68 62.2583 67.2271 64.1354 65.6813 65.6813C64.1354 67.2271 62.2583 68 60.05 68H22.95ZM22.95 62.7H60.05C60.8008 62.7 61.4298 62.4456 61.9368 61.9368C62.4456 61.4298 62.7 60.8008 62.7 60.05V22.95C62.7 22.1992 62.4456 21.5694 61.9368 21.0606C61.4298 20.5535 60.8008 20.3 60.05 20.3H22.95C22.1992 20.3 21.5694 20.5535 21.0606 21.0606C20.5535 21.5694 20.3 22.1992 20.3 22.95V60.05C20.3 60.8008 20.5535 61.4298 21.0606 61.9368C21.5694 62.4456 22.1992 62.7 22.95 62.7ZM25.6 57.4L36.2 46.8L40.97 51.5038L46.8 44.15L57.4 57.4H25.6ZM30.9 36.2C29.4425 36.2 28.1952 35.6806 27.1582 34.6418C26.1194 33.6048 25.6 32.3575 25.6 30.9C25.6 29.4425 26.1194 28.1952 27.1582 27.1582C28.1952 26.1194 29.4425 25.6 30.9 25.6C32.3575 25.6 33.6057 26.1194 34.6445 27.1582C35.6815 28.1952 36.2 29.4425 36.2 30.9C36.2 32.3575 35.6815 33.6048 34.6445 34.6418C33.6057 35.6806 32.3575 36.2 30.9 36.2Z" fill="#1F3D4D"/>
</svg>
