<svg width="252" height="41" viewBox="0 0 252 41" fill="none" xmlns="http://www.w3.org/2000/svg">
<path fill-rule="evenodd" clip-rule="evenodd" d="M17.6936 0L35.4444 10.0857V18.3598L10.4323 4.12557L17.6936 0ZM0 22.0828L25.033 36.3314L25.0777 36.3601L17.7509 40.5L0 30.4689V22.0828ZM7.05563 10.0822L35.5047 26.1395V30.4689L28.3924 34.4853V34.4136L28.4491 30.3598L0 14.3025V10.0822L7.11227 6.04273L7.05563 10.0822ZM204.704 9.69975H198.513L209.146 20.8821L197.604 32.9718H203.661L212.207 23.9943L220.655 32.9718H226.882L215.307 20.8506L225.94 9.70262H219.883L212.279 17.7413L204.704 9.69975ZM172.124 9.70262V32.9718H195.511V28.8548H177.003V23.087H193.595V19.0045H177.003V13.8196H195.511V9.70262H172.124ZM147.144 32.9689H169.086V28.8519H152.093V9.69688H147.144V32.9689ZM124.636 20.3596V13.7507H134.529C137.391 13.7507 139.072 14.9507 139.072 17.0552C139.072 19.1309 137.391 20.3596 134.529 20.3596H124.636ZM124.636 24.4134H134.798C140.318 24.4134 143.952 21.8525 143.952 17.0552C143.952 12.2262 140.318 9.69688 134.798 9.69688H119.688V32.9689H124.633V24.4134H124.636ZM100.724 32.9689L109.473 14.2359V32.9689H114.319V9.69688H106.882L98.7714 27.1351L90.6605 9.69688H83.122V32.9689H87.9331V14.2359L96.7176 32.9689H100.724ZM77.8847 9.69975H72.9365V32.9718H77.8847V9.69975ZM43.1162 27.9131C45.4711 31.186 51.1913 33.3249 56.9473 33.3249C63.7794 33.3249 69.0614 30.764 69.0614 25.6766C69.0614 20.6525 64.2146 19.7768 57.3497 19.0332C51.2241 18.3528 49.6085 17.9653 49.6085 16.2771C49.6085 14.7211 51.5609 13.3918 55.8682 13.3918C59.9729 13.3918 63.4068 14.7211 65.2579 17.0207L68.5547 13.9746C66.3667 11.1869 61.5229 9.34088 56.1365 9.34088C49.2717 9.34088 44.7974 12.3554 44.7974 16.7623C44.7974 21.3645 49.3402 22.4353 55.2631 23.0813L55.3789 23.0934C62.085 23.7956 64.0477 24.0011 64.0477 26.1934C64.0477 28.0739 61.1861 29.2395 57.15 29.2395C53.582 29.2395 49.2091 28.1371 46.4488 24.5713L43.1162 27.9131ZM243.746 11.7885V16.8615H246.271C248.238 16.8615 249.353 15.8538 249.353 14.3236C249.353 12.7819 248.238 11.7885 246.256 11.7885H243.746ZM246.271 19.0176H241.141V9.62956H246.271C249.827 9.62956 252 11.4612 252 14.3236C252 17.1859 249.827 19.0176 246.271 19.0176ZM239.2 16.3246C239.2 17.8951 237.218 19.1755 233.975 19.1755C231 19.1755 229.143 18.0903 228.407 16.5859L230.809 15.5265C231.215 16.4022 232.452 17.0424 233.999 17.0424C235.194 17.0424 236.321 16.7409 236.321 16.0863C236.321 15.4461 235.316 15.2365 234.04 15.2365H232.207V13.2757H233.96C235.239 13.2757 236.079 13.0546 236.079 12.4661C236.079 11.9436 235.254 11.6306 233.99 11.6306C232.467 11.6306 231.408 12.2708 231.057 12.9771L228.776 11.9694C229.468 10.531 231.557 9.47165 234.151 9.47165C237.152 9.47165 238.971 10.6487 238.971 12.245C238.971 13.1982 238.291 13.9188 237.328 14.2059C238.494 14.5734 239.2 15.2251 239.2 16.3246Z" fill="#F8F8F8"/>
</svg>
