<svg width="83" height="83" viewBox="0 0 83 83" fill="none" xmlns="http://www.w3.org/2000/svg">
<rect width="83" height="83" fill="#D9D9D9"/>
<rect width="83" height="83" fill="#D9F8E3"/>
<path d="M41 25C26.648 25 15 30.824 15 38C15 43.824 22.644 48.738 33.2 50.402V58.8L43.6 48.4L33.2 38V45.098C25.01 43.642 20.2 40.158 20.2 38C20.2 35.244 28.104 30.2 41 30.2C53.896 30.2 61.8 35.244 61.8 38C61.8 39.898 58.004 42.914 51.4 44.578V49.908C60.578 47.906 67 43.33 67 38C67 30.824 55.352 25 41 25Z" fill="#1F3D4D"/>
</svg>
