<svg width="83" height="83" viewBox="0 0 83 83" fill="none" xmlns="http://www.w3.org/2000/svg">
<rect width="83" height="83" fill="#D9D9D9"/>
<rect width="83" height="83" fill="#D9F8E3"/>
<path d="M32.225 62C31.1208 62 30.1827 61.6168 29.4107 60.8503C28.6369 60.0855 28.25 59.1562 28.25 58.0625V27.875H18.975C17.8708 27.875 16.9327 27.4917 16.1607 26.7252C15.3869 25.9605 15 25.0312 15 23.9375C15 22.8438 15.3869 21.9145 16.1607 21.1498C16.9327 20.3833 17.8708 20 18.975 20H45.475C46.5792 20 47.5173 20.3833 48.2893 21.1498C49.0631 21.9145 49.45 22.8438 49.45 23.9375C49.45 25.0312 49.0631 25.9605 48.2893 26.7252C47.5173 27.4917 46.5792 27.875 45.475 27.875H36.2V58.0625C36.2 59.1562 35.8131 60.0855 35.0393 60.8503C34.2673 61.6168 33.3292 62 32.225 62ZM56.075 62C54.9708 62 54.0327 61.6168 53.2607 60.8503C52.4869 60.0855 52.1 59.1562 52.1 58.0625V41H48.125C47.0208 41 46.0827 40.6168 45.3107 39.8503C44.5369 39.0855 44.15 38.1562 44.15 37.0625C44.15 35.9688 44.5369 35.0395 45.3107 34.2747C46.0827 33.5082 47.0208 33.125 48.125 33.125H64.025C65.1292 33.125 66.0673 33.5082 66.8393 34.2747C67.6131 35.0395 68 35.9688 68 37.0625C68 38.1562 67.6131 39.0855 66.8393 39.8503C66.0673 40.6168 65.1292 41 64.025 41H60.05V58.0625C60.05 59.1562 59.6631 60.0855 58.8893 60.8503C58.1173 61.6168 57.1792 62 56.075 62Z" fill="#1F3D4D"/>
</svg>
